<svg xmlns="http://www.w3.org/2000/svg" viewBox="0 0 500 500">
  <ellipse style="fill:transparent" cx="248.381" cy="250.092" rx="219.866" ry="219.864"></ellipse>
  <path
    d="M 469.524 250.182 C 469.524 371.618 370.722 470.061 248.843 470.061 C 126.964 470.061 28.162 371.618 28.162 250.182 C 28.162 128.746 126.964 30.303 248.843 30.303 C 370.722 30.303 469.524 128.746 469.524 250.182 Z M 220.395 107.421 C 197.51 108.357 175.756 126.519 162.657 141.713 C 149.4 157.049 145.852 179.697 146.302 190.71 C 146.752 201.723 150.058 215.562 162.683 231.329 C 171.205 242.509 192.559 259.618 225.014 267.865 C 249.337 274.046 274.604 280.491 287.635 290.589 C 294.787 296.132 303.845 306.197 303.863 321.391 C 303.903 354.502 259.418 359.265 248.995 359.184 C 237.474 359.094 218.622 353.051 207.439 345.475 C 196.256 337.899 192.396 326.524 188.293 315.487 L 141.801 315.727 C 142.15 323.779 143.766 344.443 164.987 367.465 C 173.525 376.727 198.038 392.836 218.239 394.843 L 218.851 432.32 L 281.115 433.131 L 281.767 395.331 C 304.335 391.604 319.903 383.282 329.447 374.554 C 345.094 360.245 354.42 350.286 354.42 314.739 C 354.42 291.948 346.238 283.29 337.874 270.963 C 329.351 258.923 299.206 241.542 269.136 233.17 C 235.27 223.741 217.245 217.562 208.356 211.247 C 199.876 205.223 193.194 195.85 195.653 181.583 C 200.82 151.604 227.238 144.983 254.431 147.433 C 279.881 149.726 301.641 170.686 301.441 192.409 L 347.538 191.949 C 346.745 175.309 343.073 153.294 326.506 136.127 C 317.228 126.513 298.438 109.697 281.988 109.407 L 280.846 69.062 L 220.643 67.859 L 220.395 107.421 Z"
    style="fill: #cdab00ff"
  ></path>
</svg>