<svg xmlns="http://www.w3.org/2000/svg" viewBox="0 0 500 500">
  <path
		d="M 469.524 250.182 C 469.524 371.618 370.722 470.061 248.843 470.061 C 126.964 470.061 28.162 371.618 28.162 250.182 C 28.162 128.746 126.964 30.303 248.843 30.303 C 370.722 30.303 469.524 128.746 469.524 250.182 Z M 220.111 108.917 C 197.226 110.35 176.316 126.018 163.217 141.212 C 149.96 156.548 147.6 176.666 148.05 187.679 C 148.5 198.692 151.806 212.531 164.431 228.298 C 172.953 239.478 194.307 256.587 226.762 264.834 C 251.085 271.015 276.352 277.46 289.383 287.558 C 296.535 293.101 305.611 303.166 305.611 318.36 C 305.611 351.47 258.391 356.153 250.743 356.153 C 239.222 356.153 220.37 350.02 209.187 342.444 C 198.004 334.868 194.144 323.493 190.041 312.456 L 143.549 312.696 C 143.898 320.748 145.514 341.412 166.735 364.434 C 175.273 373.696 199.786 389.805 219.987 391.812 L 220.669 436.347 L 284.315 437.791 L 283.515 392.3 C 306.083 388.573 321.41 379.98 331.195 371.523 C 348.871 355.9 356.168 347.255 356.168 311.708 C 356.168 288.917 347.986 280.259 339.622 267.932 C 331.099 255.892 300.954 238.511 270.884 230.139 C 237.018 220.71 218.993 214.531 210.104 208.216 C 201.624 202.192 194.942 192.819 197.401 178.552 C 202.568 148.573 235.291 145.712 262.594 145.712 C 284.847 145.712 303.389 167.655 303.189 189.378 L 349.286 188.918 C 349.629 172.278 350.667 156.675 328.254 133.096 C 319.049 123.412 304.993 111.664 284.635 109.657 L 283.905 64.348 L 220.978 63.075 L 220.111 108.917 Z"
		style="fill: rgb(255, 217, 0);"
	></path>
</svg>